# 3ds Max Wavefront OBJ Exporter v0.97b - (c)2007 guruware
# File Created: 08.02.2014 21:59:51

mtllib totemPole.mtl

#
# object Cylinder006
#

v  4.0000 0.0000 0.0000
v  2.0000 3.4641 0.0000
v  2.0000 3.4641 16.0000
v  4.0000 0.0000 16.0000
v  -2.0000 3.4641 0.0000
v  -2.0000 3.4641 16.0000
v  -4.0000 -0.0000 0.0000
v  -4.0000 -0.0000 16.0000
v  -2.0000 -3.4641 0.0000
v  -2.0000 -3.4641 16.0000
v  2.0000 -3.4641 0.0000
v  2.0000 -3.4641 16.0000
# 12 vertices

vn 1.0000 -0.0000 0.0000
vn 0.5000 0.8660 0.0000
vn 1.0000 0.0000 0.0000
vn -0.5000 0.8660 0.0000
vn -1.0000 -0.0000 0.0000
vn -0.5000 -0.8660 0.0000
vn 0.5000 -0.8660 0.0000
vn 0.0000 0.0000 -1.0000
vn 0.0000 0.0000 1.0000
# 9 vertex normals

vt 0.5000 0.0000 1.0000
vt 0.6250 0.0000 1.0000
vt 0.6250 0.5000 1.0000
vt 0.5000 0.5000 1.0000
vt 0.7500 0.0000 1.0000
vt 0.7500 0.5000 1.0000
vt -0.0000 0.0000 1.0000
vt 0.1250 0.0000 1.0000
vt 0.1250 0.5000 1.0000
vt -0.0000 0.5000 1.0000
vt 0.2500 0.0000 1.0000
vt 0.2500 0.5000 1.0000
vt 0.3750 0.0000 1.0000
vt 0.3750 0.5000 1.0000
vt 0.4688 0.5938 -0.2500
vt 0.3605 0.5313 -0.2500
vt 0.2500 0.5938 -0.2500
vt 0.2500 0.7188 -0.2500
vt 0.3605 0.7813 -0.2500
vt 0.4688 0.7188 -0.2500
vt -0.0000 0.7188 0.2500
vt 0.0000 0.5938 0.2500
vt 0.1105 0.5313 0.2500
vt 0.2188 0.5938 0.2500
vt 0.2188 0.7188 0.2500
vt 0.1105 0.7813 0.2500
# 26 texture coords

g Cylinder006
usemtl 01___Default
s 8
f 1/1/1 2/2/2 3/3/2 
f 3/3/2 4/4/3 1/1/1 
f 2/2/2 5/5/4 6/6/4 
f 6/6/4 3/3/2 2/2/2 
f 5/7/4 7/8/5 8/9/5 
f 8/9/5 6/10/4 5/7/4 
f 7/8/5 9/11/6 10/12/6 
f 10/12/6 8/9/5 7/8/5 
f 9/11/6 11/13/7 12/14/7 
f 12/14/7 10/12/6 9/11/6 
f 11/13/7 1/1/1 4/4/3 
f 4/4/3 12/14/7 11/13/7 
s 1
f 9/15/8 7/16/8 5/17/8 
f 5/17/8 2/18/8 1/19/8 
f 9/15/8 5/17/8 1/19/8 
f 11/20/8 9/15/8 1/19/8 
f 3/21/9 6/22/9 8/23/9 
f 8/23/9 10/24/9 12/25/9 
f 3/21/9 8/23/9 12/25/9 
f 4/26/9 3/21/9 12/25/9 
# 20 faces

